<mxfile host="app.diagrams.net" agent="Mozilla/5.0 (Windows NT 10.0; Win64; x64) AppleWebKit/537.36 (KHTML, like Gecko) Chrome/139.0.0.0 Safari/537.36 Edg/139.0.0.0" version="28.1.0">
  <diagram name="第 1 页" id="nFsAOjWybpd1lJpETCGC">
    <mxGraphModel dx="1213" dy="673" grid="1" gridSize="10" guides="1" tooltips="1" connect="1" arrows="1" fold="1" page="1" pageScale="1" pageWidth="827" pageHeight="1169" math="0" shadow="0">
      <root>
        <mxCell id="0" />
        <mxCell id="1" parent="0" />
        <mxCell id="9mX1B9m7YYr3MZhmCGJs-9" style="edgeStyle=orthogonalEdgeStyle;rounded=0;orthogonalLoop=1;jettySize=auto;html=1;entryX=0.5;entryY=0;entryDx=0;entryDy=0;" parent="1" source="9mX1B9m7YYr3MZhmCGJs-1" target="9mX1B9m7YYr3MZhmCGJs-2" edge="1">
          <mxGeometry relative="1" as="geometry" />
        </mxCell>
        <mxCell id="9mX1B9m7YYr3MZhmCGJs-1" value="&lt;font face=&quot;SimSun&quot; style=&quot;font-size: 18px;&quot;&gt;SCADA系统数据采集与监测&lt;/font&gt;" style="rounded=0;whiteSpace=wrap;html=1;" parent="1" vertex="1">
          <mxGeometry x="320" y="240" width="250" height="50" as="geometry" />
        </mxCell>
        <mxCell id="9mX1B9m7YYr3MZhmCGJs-10" style="edgeStyle=orthogonalEdgeStyle;rounded=0;orthogonalLoop=1;jettySize=auto;html=1;entryX=0.5;entryY=0;entryDx=0;entryDy=0;" parent="1" source="9mX1B9m7YYr3MZhmCGJs-2" target="9mX1B9m7YYr3MZhmCGJs-3" edge="1">
          <mxGeometry relative="1" as="geometry" />
        </mxCell>
        <mxCell id="9mX1B9m7YYr3MZhmCGJs-2" value="&lt;font face=&quot;SimSun&quot; style=&quot;font-size: 18px;&quot;&gt;结冰诊断模型&lt;/font&gt;" style="rounded=0;whiteSpace=wrap;html=1;" parent="1" vertex="1">
          <mxGeometry x="320" y="330" width="250" height="50" as="geometry" />
        </mxCell>
        <mxCell id="9mX1B9m7YYr3MZhmCGJs-7" style="edgeStyle=orthogonalEdgeStyle;rounded=0;orthogonalLoop=1;jettySize=auto;html=1;entryX=0.5;entryY=0;entryDx=0;entryDy=0;" parent="1" source="9mX1B9m7YYr3MZhmCGJs-3" target="9mX1B9m7YYr3MZhmCGJs-4" edge="1">
          <mxGeometry relative="1" as="geometry" />
        </mxCell>
        <mxCell id="9mX1B9m7YYr3MZhmCGJs-8" style="edgeStyle=elbowEdgeStyle;rounded=0;orthogonalLoop=1;jettySize=auto;html=1;exitX=1;exitY=0.5;exitDx=0;exitDy=0;entryX=1;entryY=0.5;entryDx=0;entryDy=0;" parent="1" source="9mX1B9m7YYr3MZhmCGJs-3" target="9mX1B9m7YYr3MZhmCGJs-6" edge="1">
          <mxGeometry relative="1" as="geometry">
            <mxPoint x="640" y="455" as="sourcePoint" />
            <mxPoint x="570" y="735" as="targetPoint" />
            <Array as="points">
              <mxPoint x="630" y="630" />
            </Array>
          </mxGeometry>
        </mxCell>
        <mxCell id="9mX1B9m7YYr3MZhmCGJs-3" value="&lt;font style=&quot;font-size: 18px;&quot; face=&quot;SimSun&quot;&gt;叶片是否结冰&lt;/font&gt;" style="rhombus;whiteSpace=wrap;html=1;" parent="1" vertex="1">
          <mxGeometry x="320" y="425" width="250" height="60" as="geometry" />
        </mxCell>
        <mxCell id="9mX1B9m7YYr3MZhmCGJs-11" style="edgeStyle=orthogonalEdgeStyle;rounded=0;orthogonalLoop=1;jettySize=auto;html=1;entryX=0.5;entryY=0;entryDx=0;entryDy=0;" parent="1" source="9mX1B9m7YYr3MZhmCGJs-4" target="9mX1B9m7YYr3MZhmCGJs-5" edge="1">
          <mxGeometry relative="1" as="geometry" />
        </mxCell>
        <mxCell id="9mX1B9m7YYr3MZhmCGJs-4" value="&lt;font style=&quot;font-size: 18px;&quot; face=&quot;SimSun&quot;&gt;除冰操作&lt;/font&gt;" style="rounded=0;whiteSpace=wrap;html=1;" parent="1" vertex="1">
          <mxGeometry x="320" y="530" width="250" height="50" as="geometry" />
        </mxCell>
        <mxCell id="9mX1B9m7YYr3MZhmCGJs-12" style="edgeStyle=orthogonalEdgeStyle;rounded=0;orthogonalLoop=1;jettySize=auto;html=1;entryX=0.5;entryY=0;entryDx=0;entryDy=0;" parent="1" source="9mX1B9m7YYr3MZhmCGJs-5" target="9mX1B9m7YYr3MZhmCGJs-6" edge="1">
          <mxGeometry relative="1" as="geometry" />
        </mxCell>
        <mxCell id="9mX1B9m7YYr3MZhmCGJs-5" value="&lt;font style=&quot;font-size: 18px;&quot; face=&quot;SimSun&quot;&gt;除冰操作&lt;/font&gt;" style="rounded=0;whiteSpace=wrap;html=1;" parent="1" vertex="1">
          <mxGeometry x="320" y="620" width="250" height="50" as="geometry" />
        </mxCell>
        <mxCell id="9mX1B9m7YYr3MZhmCGJs-6" value="&lt;font style=&quot;font-size: 18px;&quot; face=&quot;SimSun&quot;&gt;风机正常运行&lt;/font&gt;" style="rounded=0;whiteSpace=wrap;html=1;" parent="1" vertex="1">
          <mxGeometry x="320" y="710" width="250" height="50" as="geometry" />
        </mxCell>
        <mxCell id="9mX1B9m7YYr3MZhmCGJs-13" value="&lt;font style=&quot;font-size: 14px;&quot;&gt;Yes&lt;/font&gt;" style="text;html=1;align=center;verticalAlign=middle;resizable=0;points=[];autosize=1;strokeColor=none;fillColor=none;fontFamily=Times New Roman;" parent="1" vertex="1">
          <mxGeometry x="370" y="490" width="40" height="30" as="geometry" />
        </mxCell>
        <mxCell id="9mX1B9m7YYr3MZhmCGJs-14" value="&lt;font style=&quot;font-size: 14px;&quot;&gt;No&lt;/font&gt;" style="text;html=1;align=center;verticalAlign=middle;resizable=0;points=[];autosize=1;strokeColor=none;fillColor=none;fontFamily=Times New Roman;" parent="1" vertex="1">
          <mxGeometry x="580" y="425" width="40" height="30" as="geometry" />
        </mxCell>
        <mxCell id="9mX1B9m7YYr3MZhmCGJs-15" value="&lt;font style=&quot;font-size: 18px;&quot; face=&quot;SimSun&quot;&gt;保养与维护&lt;/font&gt;" style="text;html=1;align=center;verticalAlign=middle;resizable=0;points=[];autosize=1;strokeColor=none;fillColor=none;textDirection=vertical-lr;" parent="1" vertex="1">
          <mxGeometry x="590" y="585" width="110" height="40" as="geometry" />
        </mxCell>
        <mxCell id="N2hMhxvuIgpZAe5FVbZx-1" value="" style="endArrow=none;html=1;rounded=0;dashed=1;dashPattern=8 8;" edge="1" parent="1">
          <mxGeometry width="50" height="50" relative="1" as="geometry">
            <mxPoint x="200" y="310" as="sourcePoint" />
            <mxPoint x="680" y="310" as="targetPoint" />
          </mxGeometry>
        </mxCell>
        <mxCell id="N2hMhxvuIgpZAe5FVbZx-2" value="&lt;font face=&quot;SimSun&quot; style=&quot;font-size: 18px;&quot;&gt;监测阶段&lt;/font&gt;" style="text;html=1;align=center;verticalAlign=middle;whiteSpace=wrap;rounded=0;textDirection=vertical-lr;" vertex="1" parent="1">
          <mxGeometry x="170" y="220" width="90" height="90" as="geometry" />
        </mxCell>
        <mxCell id="N2hMhxvuIgpZAe5FVbZx-3" value="&lt;font face=&quot;SimSun&quot; style=&quot;font-size: 18px;&quot;&gt;诊断阶段&lt;/font&gt;" style="text;html=1;align=center;verticalAlign=middle;whiteSpace=wrap;rounded=0;textDirection=vertical-lr;" vertex="1" parent="1">
          <mxGeometry x="170" y="470" width="90" height="110" as="geometry" />
        </mxCell>
      </root>
    </mxGraphModel>
  </diagram>
</mxfile>
